Nunito-900.ufo
<glyph name="exclam" format="1">
  <advance width="776"/>
  <unicode hex="0021"/>
  <outline>
    <contour>
      <point x="303" y="593" type="line"/>
      <point x="318" y="464"/>
      <point x="481" y="464"/>
      <point x="496" y="593" type="curve" smooth="yes"/>
      <point x="589" y="1334" type="line" smooth="yes"/>
      <point x="618" y="1579"/>
      <point x="180" y="1579"/>
      <point x="209" y="1334" type="curve" smooth="yes"/>
    </contour>
    <component base="period" xOffset="78"/>
  </outline>
</glyph>
<glyph name="numbersign" format="1">
  <advance width="1298"/>
  <unicode hex="0023"/>
  <outline>
    <contour>
      <point x="353" y="-27" type="curve" smooth="yes"/>
      <point x="429" y="-27"/>
      <point x="449" y="30"/>
      <point x="460" y="102" type="curve" smooth="yes"/>
      <point x="508" y="426" type="line"/>
      <point x="715" y="426" type="line"/>
      <point x="714" y="505"/>
      <point x="665" y="78"/>
      <point x="665" y="79" type="curve" smooth="yes"/>
      <point x="656" y="12"/>
      <point x="707" y="-27"/>
      <point x="761" y="-27" type="curve" smooth="yes"/>
      <point x="825" y="-27"/>
      <point x="848" y="29"/>
      <point x="856" y="86" type="curve" smooth="yes"/>
      <point x="907" y="426" type="line"/>
      <point x="988" y="426" type="line" smooth="yes"/>
      <point x="1063" y="426"/>
      <point x="1103" y="451"/>
      <point x="1103" y="520" type="curve" smooth="yes"/>
      <point x="1103" y="599"/>
      <point x="1045" y="614"/>
      <point x="988" y="614" type="curve" smooth="yes"/>
      <point x="932" y="614" type="line"/>
      <point x="966" y="851" type="line"/>
      <point x="1046" y="851" type="line" smooth="yes"/>
      <point x="1121" y="851"/>
      <point x="1161" y="876"/>
      <point x="1161" y="945" type="curve" smooth="yes"/>
      <point x="1161" y="1022"/>
      <point x="1104" y="1039"/>
      <point x="1046" y="1039" type="curve" smooth="yes"/>
      <point x="991" y="1039" type="line"/>
      <point x="992" y="967"/>
      <point x="1036" y="1351"/>
      <point x="1036" y="1350" type="curve" smooth="yes"/>
      <point x="1046" y="1421"/>
      <point x="1002" y="1457"/>
      <point x="954" y="1456" type="curve" smooth="yes"/>
      <point x="907" y="1456"/>
      <point x="855" y="1421"/>
      <point x="846" y="1352" type="curve" smooth="yes"/>
      <point x="799" y="1039" type="line"/>
      <point x="593" y="1039" type="line"/>
      <point x="594" y="967"/>
      <point x="637" y="1328"/>
      <point x="637" y="1327" type="curve" smooth="yes"/>
      <point x="648" y="1406"/>
      <point x="603" y="1446"/>
      <point x="555" y="1450" type="curve" smooth="yes"/>
      <point x="508" y="1452"/>
      <point x="457" y="1419"/>
      <point x="448" y="1352" type="curve" smooth="yes"/>
      <point x="402" y="1039" type="line"/>
      <point x="308" y="1039" type="line" smooth="yes"/>
      <point x="232" y="1039"/>
      <point x="194" y="1009"/>
      <point x="194" y="946" type="curve" smooth="yes"/>
      <point x="194" y="865"/>
      <point x="252" y="851"/>
      <point x="308" y="851" type="curve" smooth="yes"/>
      <point x="376" y="851" type="line"/>
      <point x="342" y="614" type="line"/>
      <point x="238" y="614" type="line" smooth="yes"/>
      <point x="174" y="614"/>
      <point x="140" y="584"/>
      <point x="137" y="530" type="curve" smooth="yes"/>
      <point x="137" y="443"/>
      <point x="186" y="426"/>
      <point x="250" y="426" type="curve" smooth="yes"/>
      <point x="317" y="426" type="line"/>
      <point x="315" y="505"/>
      <point x="269" y="111"/>
      <point x="269" y="112" type="curve" smooth="yes"/>
      <point x="257" y="19"/>
      <point x="303" y="-23"/>
    </contour>
    <contour>
      <point x="534" y="614" type="line"/>
      <point x="567" y="851" type="line"/>
      <point x="774" y="851" type="line"/>
      <point x="740" y="614" type="line"/>
    </contour>
  </outline>
</glyph>
<glyph name="comma" format="1">
  <advance width="648"/>
  <unicode hex="002C"/>
  <outline>
    <contour>
      <point x="137" y="-299" type="curve"/>
      <point x="258" y="-299" type="line"/>
      <point x="287" y="-300"/>
      <point x="302" y="-288"/>
      <point x="314" y="-256" type="curve" smooth="yes"/>
      <point x="495" y="250" type="line" smooth="yes"/>
      <point x="500" y="264"/>
      <point x="503" y="303"/>
      <point x="461" y="306" type="curve"/>
      <point x="270" y="306" type="line"/>
      <point x="238" y="305"/>
      <point x="205" y="297"/>
      <point x="197" y="250" type="curve" smooth="yes"/>
      <point x="113" y="-256" type="line" smooth="yes"/>
      <point x="111" y="-268"/>
      <point x="109" y="-298"/>
    </contour>
  </outline>
</glyph>
<glyph name="six" format="1">
  <advance width="1297"/>
  <unicode hex="0036"/>
  <outline>
    <contour>
      <point x="670" y="-22" type="curve" smooth="yes"/>
      <point x="1009" y="-22"/>
      <point x="1214" y="193"/>
      <point x="1214" y="484" type="curve" smooth="yes"/>
      <point x="1214" y="779"/>
      <point x="976" y="940"/>
      <point x="738" y="940" type="curve" smooth="yes"/>
      <point x="512" y="940"/>
      <point x="448" y="835"/>
      <point x="418" y="798" type="curve" smooth="yes"/>
      <point x="418" y="1061"/>
      <point x="513" y="1226"/>
      <point x="752" y="1226" type="curve" smooth="yes"/>
      <point x="828" y="1226"/>
      <point x="902" y="1206"/>
      <point x="982" y="1186" type="curve" smooth="yes"/>
      <point x="1113" y="1148"/>
      <point x="1173" y="1376"/>
      <point x="1059" y="1422" type="curve" smooth="yes"/>
      <point x="960" y="1470"/>
      <point x="844" y="1491"/>
      <point x="747" y="1491" type="curve" smooth="yes"/>
      <point x="244" y="1491"/>
      <point x="80" y="1114"/>
      <point x="80" y="674" type="curve" smooth="yes"/>
      <point x="80" y="263"/>
      <point x="250" y="-22"/>
    </contour>
    <contour>
      <point x="661" y="216" type="curve" smooth="yes"/>
      <point x="529" y="216"/>
      <point x="443" y="316"/>
      <point x="443" y="470" type="curve" smooth="yes"/>
      <point x="443" y="637"/>
      <point x="521" y="733"/>
      <point x="675" y="734" type="curve" smooth="yes"/>
      <point x="810" y="734"/>
      <point x="886" y="630"/>
      <point x="886" y="473" type="curve" smooth="yes"/>
      <point x="886" y="308"/>
      <point x="797" y="216"/>
    </contour>
  </outline>
</glyph>
<glyph name="eight" format="1">
  <advance width="1297"/>
  <unicode hex="0038"/>
  <outline>
    <contour>
      <point x="647" y="-26" type="curve" smooth="yes"/>
      <point x="1003" y="-26"/>
      <point x="1186" y="146"/>
      <point x="1186" y="386" type="curve" smooth="yes"/>
      <point x="1186" y="579"/>
      <point x="1087" y="694"/>
      <point x="915" y="741" type="curve"/>
      <point x="1059" y="776"/>
      <point x="1160" y="876"/>
      <point x="1160" y="1056" type="curve" smooth="yes"/>
      <point x="1160" y="1321"/>
      <point x="973" y="1464"/>
      <point x="647" y="1464" type="curve" smooth="yes"/>
      <point x="314" y="1464"/>
      <point x="139" y="1308"/>
      <point x="139" y="1056" type="curve" smooth="yes"/>
      <point x="139" y="879"/>
      <point x="238" y="761"/>
      <point x="381" y="741" type="curve"/>
      <point x="210" y="701"/>
      <point x="111" y="555"/>
      <point x="111" y="386" type="curve" smooth="yes"/>
      <point x="111" y="151"/>
      <point x="274" y="-26"/>
    </contour>
    <contour>
      <point x="649" y="215" type="curve" smooth="yes"/>
      <point x="522" y="215"/>
      <point x="451" y="281"/>
      <point x="451" y="424" type="curve" smooth="yes"/>
      <point x="451" y="570"/>
      <point x="527" y="630"/>
      <point x="649" y="630" type="curve" smooth="yes"/>
      <point x="777" y="630"/>
      <point x="847" y="561"/>
      <point x="847" y="424" type="curve" smooth="yes"/>
      <point x="847" y="271"/>
      <point x="762" y="215"/>
    </contour>
    <contour>
      <point x="649" y="851" type="curve" smooth="yes"/>
      <point x="525" y="851"/>
      <point x="467" y="906"/>
      <point x="467" y="1037" type="curve" smooth="yes"/>
      <point x="467" y="1170"/>
      <point x="537" y="1229"/>
      <point x="649" y="1229" type="curve" smooth="yes"/>
      <point x="761" y="1229"/>
      <point x="832" y="1171"/>
      <point x="832" y="1037" type="curve" smooth="yes"/>
      <point x="832" y="905"/>
      <point x="775" y="851"/>
    </contour>
  </outline>
</glyph>
<glyph name="question" format="1">
  <advance width="1064"/>
  <unicode hex="003F"/>
  <outline>
    <contour>
      <point x="286" y="497" type="line"/>
      <point x="294" y="320"/>
      <point x="576" y="338"/>
      <point x="572" y="502" type="curve"/>
      <point x="571" y="536" type="line"/>
      <point x="567" y="684"/>
      <point x="968" y="737"/>
      <point x="968" y="1084" type="curve" smooth="yes"/>
      <point x="968" y="1370"/>
      <point x="750" y="1491"/>
      <point x="490" y="1491" type="curve" smooth="yes"/>
      <point x="389" y="1491"/>
      <point x="275" y="1480"/>
      <point x="171" y="1449" type="curve" smooth="yes"/>
      <point x="101" y="1427"/>
      <point x="70" y="1373"/>
      <point x="70" y="1322" type="curve" smooth="yes"/>
      <point x="70" y="1241"/>
      <point x="118" y="1188"/>
      <point x="186" y="1188" type="curve" smooth="yes"/>
      <point x="240" y="1188"/>
      <point x="310" y="1206"/>
      <point x="412" y="1206" type="curve" smooth="yes"/>
      <point x="508" y="1206"/>
      <point x="597" y="1164"/>
      <point x="597" y="1054" type="curve" smooth="yes"/>
      <point x="597" y="865"/>
      <point x="271" y="760"/>
      <point x="283" y="544" type="curve" smooth="yes"/>
    </contour>
    <contour>
      <point x="429" y="-63" type="curve" smooth="yes"/>
      <point x="525" y="-63"/>
      <point x="597" y="14"/>
      <point x="597" y="109" type="curve" smooth="yes"/>
      <point x="597" y="210"/>
      <point x="517" y="279"/>
      <point x="429" y="279" type="curve" smooth="yes"/>
      <point x="328" y="279"/>
      <point x="261" y="198"/>
      <point x="261" y="109" type="curve" smooth="yes"/>
      <point x="261" y="14"/>
      <point x="333" y="-63"/>
    </contour>
  </outline>
</glyph>
<glyph name="I" format="1">
  <advance width="688"/>
  <unicode hex="0049"/>
  <outline>
    <contour>
      <point x="345" y="1438" type="move" name="top"/>
    </contour>
    <contour>
      <point x="344" y="23" type="move" name="ogonek"/>
    </contour>
    <contour>
      <point x="343" y="0" type="curve" smooth="yes"/>
      <point x="446" y="0"/>
      <point x="528" y="94"/>
      <point x="528" y="208" type="curve" smooth="yes"/>
      <point x="528" y="1247" type="line" smooth="yes"/>
      <point x="528" y="1361"/>
      <point x="446" y="1456"/>
      <point x="344" y="1456" type="curve" smooth="yes"/>
      <point x="241" y="1456"/>
      <point x="160" y="1361"/>
      <point x="160" y="1247" type="curve" smooth="yes"/>
      <point x="160" y="208" type="line" smooth="yes"/>
      <point x="160" y="94"/>
      <point x="241" y="0"/>
    </contour>
  </outline>
</glyph>
<glyph name="L" format="1">
  <advance width="1189"/>
  <unicode hex="004C"/>
  <outline>
    <contour>
      <point x="449" y="1453" type="move" name="top"/>
    </contour>
    <contour>
      <point x="435" y="992" type="move" name="caron.alt"/>
    </contour>
    <contour>
      <point x="674" y="0" type="move" name="bot"/>
    </contour>
    <contour>
      <point x="338" y="743" type="move" name="mid"/>
    </contour>
    <contour>
      <point x="335" y="0" type="curve" smooth="yes"/>
      <point x="1021" y="0" type="line" smooth="yes"/>
      <point x="1094" y="0"/>
      <point x="1153" y="61"/>
      <point x="1153" y="139" type="curve" smooth="yes"/>
      <point x="1153" y="216"/>
      <point x="1094" y="277"/>
      <point x="1021" y="277" type="curve" smooth="yes"/>
      <point x="520" y="277" type="line"/>
      <point x="519" y="1248" type="line" smooth="yes"/>
      <point x="519" y="1362"/>
      <point x="437" y="1456"/>
      <point x="334" y="1456" type="curve" smooth="yes"/>
      <point x="232" y="1456"/>
      <point x="150" y="1362"/>
      <point x="150" y="1248" type="curve" smooth="yes"/>
      <point x="150" y="301" type="line" smooth="yes"/>
      <point x="150" y="153"/>
      <point x="192" y="0"/>
    </contour>
  </outline>
</glyph>
<glyph name="b" format="1">
  <advance width="1279"/>
  <unicode hex="0062"/>
  <outline>
    <contour>
      <point x="765" y="-19" type="curve" smooth="yes"/>
      <point x="1010" y="-19"/>
      <point x="1199" y="154"/>
      <point x="1199" y="505" type="curve" smooth="yes"/>
      <point x="1199" y="854"/>
      <point x="994" y="1018"/>
      <point x="752" y="1018" type="curve" smooth="yes"/>
      <point x="603" y="1018"/>
      <point x="485" y="954"/>
      <point x="434" y="846" type="curve"/>
      <point x="434" y="1243" type="line" smooth="yes"/>
      <point x="434" y="1381"/>
      <point x="386" y="1457"/>
      <point x="269" y="1457" type="curve" smooth="yes"/>
      <point x="158" y="1457"/>
      <point x="116" y="1381"/>
      <point x="116" y="1243" type="curve" smooth="yes"/>
      <point x="116" y="226" type="line" smooth="yes"/>
      <point x="116" y="88"/>
      <point x="167" y="-1"/>
      <point x="278" y="-1" type="curve" smooth="yes"/>
      <point x="381" y="-1"/>
      <point x="433" y="68"/>
      <point x="433" y="156" type="curve" smooth="yes"/>
      <point x="433" y="168" type="line"/>
      <point x="495" y="34"/>
      <point x="620" y="-19"/>
    </contour>
    <contour>
      <point x="671" y="177" type="curve" smooth="yes"/>
      <point x="501" y="177"/>
      <point x="435" y="305"/>
      <point x="435" y="498" type="curve" smooth="yes"/>
      <point x="435" y="710"/>
      <point x="522" y="812"/>
      <point x="666" y="812" type="curve" smooth="yes"/>
      <point x="822" y="812"/>
      <point x="895" y="682"/>
      <point x="895" y="494" type="curve" smooth="yes"/>
      <point x="895" y="348"/>
      <point x="839" y="177"/>
    </contour>
  </outline>
</glyph>
<glyph name="i" format="1">
  <advance width="574"/>
  <unicode hex="0069"/>
  <outline>
    <contour>
      <point x="298" y="0" type="curve" smooth="yes"/>
      <point x="416" y="0"/>
      <point x="453" y="76"/>
      <point x="453" y="213" type="curve" smooth="yes"/>
      <point x="453" y="794" type="line" smooth="yes"/>
      <point x="453" y="931"/>
      <point x="406" y="1007"/>
      <point x="288" y="1007" type="curve" smooth="yes"/>
      <point x="177" y="1007"/>
      <point x="136" y="931"/>
      <point x="136" y="794" type="curve" smooth="yes"/>
      <point x="136" y="213" type="line" smooth="yes"/>
      <point x="136" y="76"/>
      <point x="179" y="0"/>
    </contour>
    <contour>
      <point x="295" y="1208" type="curve" smooth="yes"/>
      <point x="399" y="1208"/>
      <point x="468" y="1272"/>
      <point x="468" y="1368" type="curve" smooth="yes"/>
      <point x="468" y="1462"/>
      <point x="400" y="1526"/>
      <point x="296" y="1526" type="curve" smooth="yes"/>
      <point x="192" y="1526"/>
      <point x="122" y="1462"/>
      <point x="122" y="1368" type="curve" smooth="yes"/>
      <point x="122" y="1272"/>
      <point x="192" y="1208"/>
    </contour>
  </outline>
</glyph>
<glyph name="u" format="1">
  <advance width="1229"/>
  <unicode hex="0075"/>
  <outline>
    <contour>
      <point x="608" y="991" type="move" name="top"/>
    </contour>
    <contour>
      <point x="960" y="22" type="move" name="ogonek"/>
    </contour>
    <contour>
      <point x="464" y="-12" type="curve" smooth="yes"/>
      <point x="638" y="-12"/>
      <point x="736" y="55"/>
      <point x="794" y="188" type="curve"/>
      <point x="794" y="176" type="line" smooth="yes"/>
      <point x="794" y="60"/>
      <point x="842" y="0"/>
      <point x="950" y="0" type="curve" smooth="yes"/>
      <point x="1061" y="0"/>
      <point x="1111" y="56"/>
      <point x="1111" y="174" type="curve" smooth="yes"/>
      <point x="1111" y="793" type="line" smooth="yes"/>
      <point x="1111" y="931"/>
      <point x="1069" y="1007"/>
      <point x="958" y="1007" type="curve" smooth="yes"/>
      <point x="841" y="1007"/>
      <point x="793" y="931"/>
      <point x="793" y="793" type="curve" smooth="yes"/>
      <point x="793" y="421" type="line" smooth="yes"/>
      <point x="793" y="290"/>
      <point x="702" y="196"/>
      <point x="588" y="196" type="curve" smooth="yes"/>
      <point x="497" y="196"/>
      <point x="426" y="258"/>
      <point x="426" y="380" type="curve" smooth="yes"/>
      <point x="426" y="793" type="line" smooth="yes"/>
      <point x="426" y="931"/>
      <point x="384" y="1007"/>
      <point x="273" y="1007" type="curve" smooth="yes"/>
      <point x="156" y="1007"/>
      <point x="108" y="931"/>
      <point x="108" y="793" type="curve" smooth="yes"/>
      <point x="108" y="375" type="line" smooth="yes"/>
      <point x="108" y="126"/>
      <point x="271" y="-12"/>
    </contour>
  </outline>
</glyph>
<glyph name="braceright" format="1">
  <advance width="787"/>
  <unicode hex="007D"/>
  <outline>
    <contour>
      <point x="136" y="-252" type="curve" smooth="yes"/>
      <point x="291" y="-252" type="line" smooth="yes"/>
      <point x="455" y="-252"/>
      <point x="545" y="-133"/>
      <point x="545" y="2" type="curve" smooth="yes"/>
      <point x="545" y="314" type="line" smooth="yes"/>
      <point x="545" y="442"/>
      <point x="576" y="488"/>
      <point x="681" y="492" type="curve"/>
      <point x="747" y="492"/>
      <point x="784" y="549"/>
      <point x="784" y="612" type="curve" smooth="yes"/>
      <point x="784" y="700"/>
      <point x="726" y="729"/>
      <point x="669" y="734" type="curve"/>
      <point x="569" y="742"/>
      <point x="545" y="795"/>
      <point x="545" y="911" type="curve" smooth="yes"/>
      <point x="545" y="1236" type="line" smooth="yes"/>
      <point x="545" y="1394"/>
      <point x="422" y="1479"/>
      <point x="291" y="1479" type="curve" smooth="yes"/>
      <point x="136" y="1479" type="line" smooth="yes"/>
      <point x="61" y="1479"/>
      <point x="25" y="1431"/>
      <point x="25" y="1363" type="curve" smooth="yes"/>
      <point x="25" y="1274"/>
      <point x="82" y="1243"/>
      <point x="146" y="1243" type="curve" smooth="yes"/>
      <point x="164" y="1243" type="line" smooth="yes"/>
      <point x="256" y="1243"/>
      <point x="255" y="1152"/>
      <point x="255" y="1035" type="curve" smooth="yes"/>
      <point x="255" y="847" type="line" smooth="yes"/>
      <point x="255" y="696"/>
      <point x="413" y="639"/>
      <point x="438" y="611" type="curve"/>
      <point x="371" y="589"/>
      <point x="255" y="533"/>
      <point x="255" y="378" type="curve" smooth="yes"/>
      <point x="255" y="167" type="line" smooth="yes"/>
      <point x="255" y="44"/>
      <point x="248" y="-17"/>
      <point x="169" y="-17" type="curve" smooth="yes"/>
      <point x="136" y="-17" type="line" smooth="yes"/>
      <point x="58" y="-17"/>
      <point x="24" y="-71"/>
      <point x="24" y="-135" type="curve" smooth="yes"/>
      <point x="24" y="-216"/>
      <point x="74" y="-252"/>
    </contour>
  </outline>
</glyph>
<glyph name="cent" format="1">
  <advance width="1063"/>
  <unicode hex="00A2"/>
  <outline>
    <contour>
      <point x="605" y="-307" type="curve" smooth="yes"/>
      <point x="641" y="-307"/>
      <point x="676" y="-283"/>
      <point x="676" y="-235" type="curve" smooth="yes"/>
      <point x="676" y="111" type="line"/>
      <point x="533" y="112" type="line"/>
      <point x="533" y="-217" type="line" smooth="yes"/>
      <point x="533" y="-277"/>
      <point x="561" y="-307"/>
    </contour>
    <contour>
      <point x="533" y="901" type="line"/>
      <point x="676" y="902" type="line"/>
      <point x="676" y="1189" type="line" smooth="yes"/>
      <point x="676" y="1236"/>
      <point x="641" y="1260"/>
      <point x="605" y="1260" type="curve" smooth="yes"/>
      <point x="561" y="1260"/>
      <point x="533" y="1230"/>
      <point x="533" y="1171" type="curve" smooth="yes"/>
    </contour>
    <component base="c"/>
  </outline>
</glyph>
<glyph name="copyright" format="1">
  <advance width="1732"/>
  <unicode hex="00A9"/>
  <outline>
    <contour>
      <point x="880" y="368" type="curve" smooth="yes"/>
      <point x="953" y="368"/>
      <point x="1151" y="393"/>
      <point x="1151" y="488" type="curve" smooth="yes"/>
      <point x="1151" y="518"/>
      <point x="1129" y="549"/>
      <point x="1100" y="549" type="curve" smooth="yes"/>
      <point x="1095" y="549"/>
      <point x="1090" y="548"/>
      <point x="1084" y="546" type="curve"/>
      <point x="1017" y="511"/>
      <point x="951" y="507"/>
      <point x="891" y="507" type="curve" smooth="yes"/>
      <point x="760" y="507"/>
      <point x="660" y="601"/>
      <point x="660" y="767" type="curve" smooth="yes"/>
      <point x="660" y="952"/>
      <point x="765" y="1021"/>
      <point x="897" y="1021" type="curve" smooth="yes"/>
      <point x="923" y="1021"/>
      <point x="951" y="1020"/>
      <point x="980" y="1019" type="curve"/>
      <point x="1013" y="1010"/>
      <point x="1068" y="978"/>
      <point x="1093" y="978" type="curve" smooth="yes"/>
      <point x="1128" y="978"/>
      <point x="1149" y="1014"/>
      <point x="1149" y="1046" type="curve" smooth="yes"/>
      <point x="1149" y="1126"/>
      <point x="967" y="1157"/>
      <point x="881" y="1157" type="curve" smooth="yes"/>
      <point x="672" y="1157"/>
      <point x="494" y="1025"/>
      <point x="494" y="765" type="curve" smooth="yes"/>
      <point x="494" y="491"/>
      <point x="681" y="368"/>
    </contour>
    <contour>
      <point x="874" y="204" type="curve" smooth="yes"/>
      <point x="543" y="204"/>
      <point x="304" y="455"/>
      <point x="304" y="763" type="curve" smooth="yes"/>
      <point x="304" y="1082"/>
      <point x="551" y="1323"/>
      <point x="874" y="1323" type="curve" smooth="yes"/>
      <point x="1203" y="1323"/>
      <point x="1442" y="1070"/>
      <point x="1442" y="763" type="curve" smooth="yes"/>
      <point x="1442" y="433"/>
      <point x="1182" y="204"/>
    </contour>
    <contour>
      <point x="874" y="61" type="curve" smooth="yes"/>
      <point x="1275" y="61"/>
      <point x="1604" y="378"/>
      <point x="1604" y="763" type="curve" smooth="yes"/>
      <point x="1604" y="1173"/>
      <point x="1259" y="1472"/>
      <point x="874" y="1472" type="curve" smooth="yes"/>
      <point x="453" y="1472"/>
      <point x="140" y="1135"/>
      <point x="140" y="763" type="curve" smooth="yes"/>
      <point x="140" y="358"/>
      <point x="482" y="61"/>
    </contour>
  </outline>
</glyph>
<glyph name="ae" format="1">
  <advance width="1773"/>
  <unicode hex="00E6"/>
  <outline>
    <contour>
      <point x="887" y="991" type="move" name="top"/>
    </contour>
    <contour>
      <point x="434" y="-19" type="curve" smooth="yes"/>
      <point x="624" y="-19"/>
      <point x="763" y="33"/>
      <point x="839" y="154" type="curve"/>
      <point x="919" y="44"/>
      <point x="1041" y="-19"/>
      <point x="1206" y="-19" type="curve" smooth="yes"/>
      <point x="1276" y="-19"/>
      <point x="1641" y="-13"/>
      <point x="1641" y="166" type="curve" smooth="yes"/>
      <point x="1641" y="211"/>
      <point x="1613" y="265"/>
      <point x="1567" y="265" type="curve" smooth="yes"/>
      <point x="1560" y="265"/>
      <point x="1553" y="264"/>
      <point x="1545" y="263" type="curve" smooth="yes"/>
      <point x="1454" y="242"/>
      <point x="1375" y="200"/>
      <point x="1260" y="200" type="curve" smooth="yes"/>
      <point x="1064" y="200"/>
      <point x="1016" y="307"/>
      <point x="1013" y="449" type="curve"/>
      <point x="1574" y="449" type="line" smooth="yes"/>
      <point x="1641" y="449"/>
      <point x="1687" y="465"/>
      <point x="1687" y="534" type="curve"/>
      <point x="1687" y="831"/>
      <point x="1524" y="1035"/>
      <point x="1219" y="1035" type="curve" smooth="yes"/>
      <point x="1078" y="1035"/>
      <point x="962" y="983"/>
      <point x="882" y="893" type="curve"/>
      <point x="822" y="989"/>
      <point x="724" y="1030"/>
      <point x="587" y="1034" type="curve" smooth="yes"/>
      <point x="476" y="1034"/>
      <point x="265" y="1024"/>
      <point x="177" y="942" type="curve" smooth="yes"/>
      <point x="154" y="917"/>
      <point x="139" y="884"/>
      <point x="139" y="844" type="curve" smooth="yes"/>
      <point x="139" y="792"/>
      <point x="177" y="761"/>
      <point x="222" y="761" type="curve" smooth="yes"/>
      <point x="237" y="761"/>
      <point x="251" y="761"/>
      <point x="268" y="766" type="curve" smooth="yes"/>
      <point x="339" y="781"/>
      <point x="416" y="809"/>
      <point x="523" y="809" type="curve" smooth="yes"/>
      <point x="623" y="809"/>
      <point x="712" y="786"/>
      <point x="712" y="663" type="curve" smooth="yes"/>
      <point x="712" y="615" type="line"/>
      <point x="691" y="614"/>
      <point x="652" y="617"/>
      <point x="629" y="617" type="curve" smooth="yes"/>
      <point x="273" y="617"/>
      <point x="52" y="523"/>
      <point x="52" y="274" type="curve" smooth="yes"/>
      <point x="52" y="84"/>
      <point x="196" y="-19"/>
    </contour>
    <contour>
      <point x="499" y="156" type="curve"/>
      <point x="405" y="156"/>
      <point x="337" y="205"/>
      <point x="337" y="301" type="curve" smooth="yes"/>
      <point x="337" y="448"/>
      <point x="622" y="464"/>
      <point x="711" y="464" type="curve"/>
      <point x="711" y="404" type="line"/>
      <point x="707" y="247"/>
      <point x="625" y="156"/>
    </contour>
    <contour>
      <point x="1012" y="601" type="line"/>
      <point x="1020" y="753"/>
      <point x="1092" y="852"/>
      <point x="1221" y="852" type="curve" smooth="yes"/>
      <point x="1345" y="852"/>
      <point x="1414" y="763"/>
      <point x="1421" y="601" type="curve"/>
    </contour>
  </outline>
</glyph>
<glyph name="circumflex" format="1">
  <advance width="569"/>
  <unicode hex="02C6"/>
  <outline>
    <contour>
      <point x="294" y="1040" type="move" name="_top"/>
    </contour>
    <contour>
      <point x="24" y="1141" type="curve" smooth="yes"/>
      <point x="67" y="1141"/>
      <point x="110" y="1183"/>
      <point x="153" y="1236" type="curve"/>
      <point x="283" y="1398" type="line"/>
      <point x="417" y="1227" type="line" smooth="yes"/>
      <point x="456" y="1167"/>
      <point x="495" y="1145"/>
      <point x="537" y="1145" type="curve" smooth="yes"/>
      <point x="581" y="1145"/>
      <point x="619" y="1175"/>
      <point x="619" y="1219" type="curve" smooth="yes"/>
      <point x="619" y="1251"/>
      <point x="596" y="1291"/>
      <point x="572" y="1324" type="curve" smooth="yes"/>
      <point x="403" y="1532" type="line" smooth="yes"/>
      <point x="368" y="1577"/>
      <point x="323" y="1598"/>
      <point x="283" y="1598" type="curve" smooth="yes"/>
      <point x="238" y="1598"/>
      <point x="196" y="1573"/>
      <point x="161" y="1532" type="curve"/>
      <point x="-18" y="1311" type="line" smooth="yes"/>
      <point x="-42" y="1277"/>
      <point x="-59" y="1241"/>
      <point x="-59" y="1217" type="curve"/>
      <point x="-59" y="1171"/>
      <point x="-21" y="1141"/>
    </contour>
  </outline>
</glyph>
<glyph name="dotaccent" format="1">
  <advance width="648"/>
  <unicode hex="02D9"/>
  <outline>
    <contour>
      <point x="336" y="1040" type="move" name="_top"/>
    </contour>
    <contour>
      <point x="336" y="1196" type="curve" smooth="yes"/>
      <point x="433" y="1196"/>
      <point x="506" y="1273"/>
      <point x="506" y="1369" type="curve" smooth="yes"/>
      <point x="506" y="1475"/>
      <point x="421" y="1539"/>
      <point x="336" y="1539" type="curve" smooth="yes"/>
      <point x="239" y="1539"/>
      <point x="169" y="1461"/>
      <point x="169" y="1369" type="curve" smooth="yes"/>
      <point x="169" y="1268"/>
      <point x="244" y="1196"/>
    </contour>
  </outline>
</glyph>
<glyph name="ring" format="1">
  <advance width="569"/>
  <unicode hex="02DA"/>
  <outline>
    <contour>
      <point x="285" y="1040" type="move" name="_top"/>
    </contour>
    <contour>
      <point x="274" y="1309" type="curve" smooth="yes"/>
      <point x="216" y="1309"/>
      <point x="175" y="1349"/>
      <point x="175" y="1405" type="curve" smooth="yes"/>
      <point x="175" y="1462"/>
      <point x="216" y="1501"/>
      <point x="274" y="1501" type="curve" smooth="yes"/>
      <point x="332" y="1501"/>
      <point x="373" y="1462"/>
      <point x="373" y="1405" type="curve" smooth="yes"/>
      <point x="373" y="1349"/>
      <point x="332" y="1309"/>
    </contour>
    <contour>
      <point x="274" y="1177" type="curve" smooth="yes"/>
      <point x="406" y="1177"/>
      <point x="500" y="1272"/>
      <point x="500" y="1405" type="curve" smooth="yes"/>
      <point x="500" y="1539"/>
      <point x="406" y="1633"/>
      <point x="274" y="1633" type="curve" smooth="yes"/>
      <point x="141" y="1633"/>
      <point x="48" y="1539"/>
      <point x="48" y="1405" type="curve" smooth="yes"/>
      <point x="48" y="1272"/>
      <point x="141" y="1177"/>
    </contour>
  </outline>
</glyph>
<glyph name="Sigma" format="1">
  <advance width="1437"/>
  <unicode hex="03A3"/>
  <outline>
    <contour>
      <point x="417" y="-269" type="curve" smooth="yes"/>
      <point x="1163" y="-268" type="line" smooth="yes"/>
      <point x="1353" y="-268"/>
      <point x="1357" y="60"/>
      <point x="1163" y="60" type="curve" smooth="yes"/>
      <point x="498" y="60" type="line"/>
      <point x="909" y="412" type="line" smooth="yes"/>
      <point x="1032" y="525"/>
      <point x="1059" y="651"/>
      <point x="909" y="787" type="curve" smooth="yes"/>
      <point x="498" y="1128" type="line"/>
      <point x="1163" y="1127" type="line" smooth="yes"/>
      <point x="1357" y="1127"/>
      <point x="1353" y="1455"/>
      <point x="1163" y="1455" type="curve" smooth="yes"/>
      <point x="417" y="1455" type="line" smooth="yes"/>
      <point x="159" y="1455"/>
      <point x="39" y="1217"/>
      <point x="270" y="993" type="curve" smooth="yes"/>
      <point x="715" y="593" type="line"/>
      <point x="270" y="185" type="line" smooth="yes"/>
      <point x="80" y="-4"/>
      <point x="159" y="-269"/>
    </contour>
  </outline>
</glyph>
<glyph name="perthousand" format="1">
  <advance width="2344"/>
  <unicode hex="2030"/>
  <outline>
    <contour>
      <point x="403" y="-61" type="curve" smooth="yes"/>
      <point x="441" y="-61"/>
      <point x="470" y="-8"/>
      <point x="494" y="37" type="curve" smooth="yes"/>
      <point x="1195" y="1310" type="line" smooth="yes"/>
      <point x="1212" y="1343"/>
      <point x="1233" y="1383"/>
      <point x="1233" y="1412" type="curve" smooth="yes"/>
      <point x="1233" y="1454"/>
      <point x="1198" y="1487"/>
      <point x="1159" y="1487" type="curve" smooth="yes"/>
      <point x="1132" y="1487"/>
      <point x="1109" y="1473"/>
      <point x="1091" y="1440" type="curve" smooth="yes"/>
      <point x="361" y="109" type="line" smooth="yes"/>
      <point x="347" y="80"/>
      <point x="325" y="41"/>
      <point x="325" y="16" type="curve" smooth="yes"/>
      <point x="325" y="-22"/>
      <point x="362" y="-61"/>
    </contour>
    <contour>
      <point x="364" y="782" type="curve" smooth="yes"/>
      <point x="260" y="782"/>
      <point x="225" y="872"/>
      <point x="225" y="1042" type="curve" smooth="yes"/>
      <point x="225" y="1203"/>
      <point x="257" y="1301"/>
      <point x="364" y="1301" type="curve" smooth="yes"/>
      <point x="469" y="1301"/>
      <point x="502" y="1208"/>
      <point x="502" y="1042" type="curve" smooth="yes"/>
      <point x="502" y="848"/>
      <point x="454" y="782"/>
    </contour>
    <contour>
      <point x="356" y="620" type="curve" smooth="yes"/>
      <point x="596" y="620"/>
      <point x="701" y="805"/>
      <point x="701" y="1051" type="curve" smooth="yes"/>
      <point x="701" y="1300"/>
      <point x="571" y="1462"/>
      <point x="372" y="1462" type="curve" smooth="yes"/>
      <point x="133" y="1462"/>
      <point x="26" y="1277"/>
      <point x="26" y="1032" type="curve" smooth="yes"/>
      <point x="26" y="775"/>
      <point x="160" y="620"/>
    </contour>
    <contour>
      <point x="1208" y="127" type="curve" smooth="yes"/>
      <point x="1101" y="127"/>
      <point x="1071" y="219"/>
      <point x="1071" y="386" type="curve" smooth="yes"/>
      <point x="1071" y="551"/>
      <point x="1104" y="646"/>
      <point x="1208" y="646" type="curve" smooth="yes"/>
      <point x="1310" y="646"/>
      <point x="1346" y="557"/>
      <point x="1346" y="386" type="curve" smooth="yes"/>
      <point x="1346" y="197"/>
      <point x="1302" y="127"/>
    </contour>
    <contour>
      <point x="1201" y="-35" type="curve" smooth="yes"/>
      <point x="1438" y="-35"/>
      <point x="1546" y="149"/>
      <point x="1546" y="396" type="curve" smooth="yes"/>
      <point x="1546" y="652"/>
      <point x="1412" y="808"/>
      <point x="1216" y="808" type="curve" smooth="yes"/>
      <point x="980" y="808"/>
      <point x="872" y="624"/>
      <point x="872" y="377" type="curve" smooth="yes"/>
      <point x="872" y="121"/>
      <point x="1002" y="-35"/>
    </contour>
    <contour>
      <point x="1961" y="127" type="curve" smooth="yes"/>
      <point x="1856" y="127"/>
      <point x="1824" y="221"/>
      <point x="1824" y="386" type="curve" smooth="yes"/>
      <point x="1824" y="572"/>
      <point x="1868" y="646"/>
      <point x="1961" y="646" type="curve" smooth="yes"/>
      <point x="2066" y="646"/>
      <point x="2100" y="552"/>
      <point x="2100" y="386" type="curve" smooth="yes"/>
      <point x="2100" y="194"/>
      <point x="2054" y="127"/>
    </contour>
    <contour>
      <point x="1954" y="-35" type="curve" smooth="yes"/>
      <point x="2190" y="-35"/>
      <point x="2299" y="149"/>
      <point x="2299" y="396" type="curve" smooth="yes"/>
      <point x="2299" y="642"/>
      <point x="2173" y="808"/>
      <point x="1970" y="808" type="curve" smooth="yes"/>
      <point x="1732" y="808"/>
      <point x="1624" y="624"/>
      <point x="1624" y="377" type="curve" smooth="yes"/>
      <point x="1624" y="115"/>
      <point x="1761" y="-35"/>
    </contour>
  </outline>
</glyph>
<glyph name="fraction" format="1">
  <advance width="668"/>
  <unicode hex="2044"/>
  <outline>
    <contour>
      <point x="104" y="-53" type="curve" smooth="yes"/>
      <point x="141" y="-53"/>
      <point x="181" y="-36"/>
      <point x="198" y="17" type="curve"/>
      <point x="643" y="1313" type="line" smooth="yes"/>
      <point x="653" y="1348"/>
      <point x="667" y="1389"/>
      <point x="667" y="1419" type="curve" smooth="yes"/>
      <point x="667" y="1487"/>
      <point x="619" y="1520"/>
      <point x="564" y="1520" type="curve" smooth="yes"/>
      <point x="503" y="1520"/>
      <point x="470" y="1451"/>
      <point x="449" y="1381" type="curve" smooth="yes"/>
      <point x="25" y="153" type="line" smooth="yes"/>
      <point x="15" y="115"/>
      <point x="0" y="73"/>
      <point x="0" y="43" type="curve" smooth="yes"/>
      <point x="0" y="-19"/>
      <point x="57" y="-53"/>
    </contour>
  </outline>
</glyph>
<glyph name="trademark" format="1">
  <advance width="1989"/>
  <unicode hex="2122"/>
  <outline>
    <contour>
      <point x="950" y="644" type="curve" smooth="yes"/>
      <point x="1022" y="644"/>
      <point x="1044" y="711"/>
      <point x="1044" y="792" type="curve" smooth="yes"/>
      <point x="1044" y="1186" type="line"/>
      <point x="1225" y="747" type="line"/>
      <point x="1247" y="688"/>
      <point x="1273" y="651"/>
      <point x="1323" y="651" type="curve" smooth="yes"/>
      <point x="1382" y="651"/>
      <point x="1409" y="705"/>
      <point x="1432" y="769" type="curve"/>
      <point x="1605" y="1186" type="line"/>
      <point x="1605" y="792" type="line" smooth="yes"/>
      <point x="1605" y="700"/>
      <point x="1630" y="644"/>
      <point x="1698" y="644" type="curve" smooth="yes"/>
      <point x="1770" y="644"/>
      <point x="1793" y="712"/>
      <point x="1793" y="789" type="curve" smooth="yes"/>
      <point x="1793" y="1238" type="line" smooth="yes"/>
      <point x="1793" y="1365"/>
      <point x="1736" y="1426"/>
      <point x="1647" y="1426" type="curve" smooth="yes"/>
      <point x="1563" y="1426"/>
      <point x="1515" y="1350"/>
      <point x="1484" y="1272" type="curve"/>
      <point x="1325" y="894" type="line"/>
      <point x="1166" y="1272" type="line"/>
      <point x="1130" y="1364"/>
      <point x="1077" y="1427"/>
      <point x="1006" y="1427" type="curve" smooth="yes"/>
      <point x="879" y="1427"/>
      <point x="857" y="1310"/>
      <point x="857" y="1214" type="curve" smooth="yes"/>
      <point x="857" y="789" type="line" smooth="yes"/>
      <point x="857" y="694"/>
      <point x="883" y="644"/>
    </contour>
    <contour>
      <point x="391" y="645" type="curve" smooth="yes"/>
      <point x="462" y="645"/>
      <point x="490" y="708"/>
      <point x="490" y="784" type="curve" smooth="yes"/>
      <point x="490" y="1283" type="line"/>
      <point x="606" y="1283" type="line" smooth="yes"/>
      <point x="669" y="1283"/>
      <point x="710" y="1300"/>
      <point x="710" y="1355" type="curve" smooth="yes"/>
      <point x="710" y="1422"/>
      <point x="655" y="1428"/>
      <point x="603" y="1428" type="curve" smooth="yes"/>
      <point x="146" y="1428" type="line" smooth="yes"/>
      <point x="94" y="1428"/>
      <point x="69" y="1392"/>
      <point x="69" y="1356" type="curve" smooth="yes"/>
      <point x="69" y="1297"/>
      <point x="114" y="1283"/>
      <point x="174" y="1283" type="curve" smooth="yes"/>
      <point x="291" y="1283" type="line"/>
      <point x="291" y="784" type="line" smooth="yes"/>
      <point x="291" y="692"/>
      <point x="324" y="645"/>
    </contour>
  </outline>
</glyph>
<glyph name="radical" format="1">
  <advance width="1449"/>
  <unicode hex="221A"/>
  <outline>
    <contour>
      <point x="644" y="-102" type="curve" smooth="yes"/>
      <point x="807" y="-102"/>
      <point x="871" y="51"/>
      <point x="964" y="343" type="curve" smooth="yes"/>
      <point x="1331" y="1315" type="line" smooth="yes"/>
      <point x="1343" y="1353"/>
      <point x="1347" y="1388"/>
      <point x="1347" y="1421" type="curve" smooth="yes"/>
      <point x="1347" y="1532"/>
      <point x="1277" y="1590"/>
      <point x="1200" y="1590" type="curve" smooth="yes"/>
      <point x="1126" y="1590"/>
      <point x="1050" y="1532"/>
      <point x="1011" y="1413" type="curve" smooth="yes"/>
      <point x="618" y="340" type="line"/>
      <point x="613" y="339" type="line"/>
      <point x="464" y="585" type="line" smooth="yes"/>
      <point x="400" y="704"/>
      <point x="327" y="744"/>
      <point x="255" y="732" type="curve" smooth="yes"/>
      <point x="172" y="716"/>
      <point x="107" y="633"/>
      <point x="124" y="524" type="curve" smooth="yes"/>
      <point x="128" y="499"/>
      <point x="133" y="475"/>
      <point x="149" y="448" type="curve" smooth="yes"/>
      <point x="376" y="91" type="line" smooth="yes"/>
      <point x="464" y="-41"/>
      <point x="515" y="-102"/>
    </contour>
  </outline>
</glyph>
<glyph name="notequal" format="1">
  <advance width="1196"/>
  <unicode hex="2260"/>
  <outline>
    <contour>
      <point x="394" y="-48" type="curve" smooth="yes"/>
      <point x="441" y="-48"/>
      <point x="480" y="-12"/>
      <point x="504" y="53" type="curve" smooth="yes"/>
      <point x="587" y="249" type="line"/>
      <point x="1001" y="249" type="line" smooth="yes"/>
      <point x="1087" y="249"/>
      <point x="1130" y="281"/>
      <point x="1130" y="354" type="curve" smooth="yes"/>
      <point x="1130" y="445"/>
      <point x="1064" y="460"/>
      <point x="1000" y="460" type="curve" smooth="yes"/>
      <point x="664" y="460" type="line"/>
      <point x="762" y="699" type="line"/>
      <point x="1001" y="699" type="line" smooth="yes"/>
      <point x="1084" y="699"/>
      <point x="1130" y="729"/>
      <point x="1130" y="803" type="curve" smooth="yes"/>
      <point x="1130" y="894"/>
      <point x="1064" y="910"/>
      <point x="1000" y="910" type="curve" smooth="yes"/>
      <point x="838" y="910" type="line"/>
      <point x="896" y="1039" type="line" smooth="yes"/>
      <point x="906" y="1066"/>
      <point x="914" y="1093"/>
      <point x="914" y="1118" type="curve"/>
      <point x="914" y="1170"/>
      <point x="871" y="1208"/>
      <point x="822" y="1213" type="curve" smooth="yes"/>
      <point x="762" y="1213"/>
      <point x="730" y="1185"/>
      <point x="705" y="1113" type="curve" smooth="yes"/>
      <point x="621" y="910" type="line"/>
      <point x="234" y="910" type="line" smooth="yes"/>
      <point x="146" y="910"/>
      <point x="105" y="876"/>
      <point x="105" y="804" type="curve" smooth="yes"/>
      <point x="105" y="745"/>
      <point x="139" y="699"/>
      <point x="205" y="699" type="curve" smooth="yes"/>
      <point x="545" y="699" type="line"/>
      <point x="446" y="460" type="line"/>
      <point x="233" y="460" type="line" smooth="yes"/>
      <point x="146" y="460"/>
      <point x="106" y="424"/>
      <point x="106" y="354" type="curve" smooth="yes"/>
      <point x="106" y="266"/>
      <point x="168" y="249"/>
      <point x="234" y="249" type="curve" smooth="yes"/>
      <point x="370" y="249" type="line"/>
      <point x="315" y="128" type="line" smooth="yes"/>
      <point x="304" y="101"/>
      <point x="296" y="72"/>
      <point x="296" y="51" type="curve"/>
      <point x="296" y="-6"/>
      <point x="338" y="-48"/>
    </contour>
  </outline>
</glyph>
